# xmcd
#
# Track frame offsets: 
#        150
#        19272
#        28861
#        52273
#        65090
#        80276
#        97388
#        114282
#        126668
#        146037
#        166744
#        180001
#        185036
#        213111
#        236962
#        260132
#        283107
#        314701
#
# Disc length: 4413 seconds
#
# Revision: 0
# Processed by: cddbd v1.5.2PL0 Copyright (c) Steve Scherf et al.
# Submitted via: ExactAudioCopyFreeDBPlugin 1.0
#
DISCID=1d113b12
DTITLE=Various Artist - True Soul Volume 2
DYEAR=1900
DGENRE=Funk
TTITLE0=Albert Smith - The Thrill is Gone
TTITLE1=Thomas East - Just a Trip
TTITLE2=Larry Davis - Down Home Funk
TTITLE3=Thomas East - Sister Funk (instrumental)
TTITLE4=Classic Funk - The Funk's Gonna Fly
TTITLE5=York Wilborn's Psychedelic Six - Thank You
TTITLE6=The Conspiracy - Conspiracy
TTITLE7=The Right Track - Maybe Yes Maybe No
TTITLE8=The Leaders - (It's a) Rat Race
TTITLE9=The Conspiracy - I Believe (Our Love Has Gone Away)
TTITLE10=John Craig - I Don't Want to do it
TTITLE11=John Craig - Doing My Own Thing (Interlude)
TTITLE12=The Right Track - You for Me and Me for You
TTITLE13=Portrait - Springtime Smile
TTITLE14=Portrait - Love You For Now On
TTITLE15=Le'Chance - Get Down
TTITLE16=Le'Chance - Gigolo
TTITLE17=Soul Mind and Body - I Took Your Love to be True
EXTD=
EXTT0=
EXTT1=
EXTT2=
EXTT3=
EXTT4=
EXTT5=
EXTT6=
EXTT7=
EXTT8=
EXTT9=
EXTT10=
EXTT11=
EXTT12=
EXTT13=
EXTT14=
EXTT15=
EXTT16=
EXTT17=
PLAYORDER=
